<?xml version="1.0" standalone="no"?> <!DOCTYPE svg PUBLIC "-//W3C//DTD SVG 1.0//EN" "http://www.w3.org/TR/2001/REC-SVG-20010904/DTD/svg10.dtd" > <svg xmlns="http://www.w3.org/2000/svg" width="100%" height="100%">
<defs >
<font id="PassionSansPDae-Book" horiz-adv-x="520" ><font-face
    font-family="PassionSansPDae"
    units-per-em="1000"
    panose-1="0 0 0 0 0 0 0 0 0 0"
    ascent="942"
    descent="-244"
    alphabetic="0" />
<missing-glyph horiz-adv-x="296" />
<glyph unicode=" " glyph-name="space" horiz-adv-x="296" />
<glyph unicode="!" glyph-name="exclam" horiz-adv-x="176" d="M137 30Q137 11 121 1T88 -10Q71 -10 55 0T39 30Q39 49 55 60T88 71Q105 71 121 60T137 30ZM98 172H78L49 720H127L98 172Z" />
<glyph unicode="&quot;" glyph-name="quotedbl" horiz-adv-x="327" d="M56 459L37 466L102 730L175 703L56 459ZM171 459L152 466L217 730L290 703L171 459Z" />
<glyph unicode="#" glyph-name="numbersign" horiz-adv-x="603" d="M238 450L214 270H365L389 450H238ZM448 450L423 270H536V250H421L387 0H328L362 250H211L177 0H118L153 250H40V270H155L180 450H67V470H182L216 720H275L241 470H392L426 720H485L450 470H564V450H448Z"
/>
<glyph unicode="$" glyph-name="dollar" horiz-adv-x="495" d="M473 231Q473 202 459 177T416 134T348 104T257 91V0H237V91Q186 92 147 103T79 133T37 177T22 231H100Q100 206 109 185T138 147T184 121T247 111Q283 111 310 120T356 146T385 184T395 231Q395
255 385 277T357 315T311 340T247 350Q198 350 159 361T93 391T52 435T37 490Q37 518 50 543T90 586T153 616T237 629V720H257V629Q304 628 341 617T405 587T444 543T458 490H380Q380 539 346 574T247 609Q183 609 149 574T115 490Q115 465 123 444T149 406T190
380T247 370Q300 370 342 359T413 330T457 286T473 231Z" />
<glyph unicode="%" glyph-name="percent" horiz-adv-x="830" d="M715 168Q715 198 708 226T688 277T654 312T608 325Q581 325 561 312T528 277T507 227T500 168Q500 137 507 109T527 58T561 23T608 10Q634 10 654 23T687 58T708 108T715 168ZM793 168Q793 133
781 101T746 45T689 5T608 -10Q562 -10 527 5T469 44T434 101T422 168Q422 202 434 234T469 291T527 330T608 345Q654 345 688 331T746 291T781 234T793 168ZM209 0H186L620 720H643L209 0ZM329 552Q329 583 322 611T302 662T268 697T222 710Q195 710 175 697T142
662T121 612T114 552Q114 522 121 494T141 443T175 408T222 395Q248 395 268 408T301 443T322 493T329 552ZM407 552Q407 517 395 486T360 429T303 390T222 375Q176 375 142 389T84 429T49 485T37 552Q37 586 48 618T83 675T141 715T222 730Q268 730 302 715T360
676T395 619T407 552Z" />
<glyph unicode="&amp;" glyph-name="ampersand" horiz-adv-x="799" d="M779 424Q747 311 569 328Q588 320 608 306T643 273T669 232T679 185Q679 146 660 111T601 48T502 6T364 -10Q285 -10 224 4T122 43T59 102T37 175Q37 243 86 293T231 361Q146 379 103 428T59
540Q59 579 76 614T128 674T210 715T322 730Q385 730 433 715T516 675T567 614T585 540H507Q507 575 495 606T460 660T402 696T322 710Q277 710 243 697T185 660T149 606T137 540Q137 505 149 474T184 420T242 384T322 370V350Q272 350 233 337T168 300T129 246T115
180Q115 145 131 114T178 60T256 24T364 10Q421 10 465 24T539 64T584 121T601 190Q602 230 587 261T548 312T495 341T439 344T389 317T356 258L280 264Q287 295 308 317T362 350T435 362T524 347Q559 336 590 338T645 352T684 384T703 431L779 424V424Z" />
<glyph unicode="&apos;" glyph-name="quotesingle" horiz-adv-x="212" d="M56 459L37 466L102 730L175 703L56 459Z" />
<glyph unicode="(" glyph-name="parenleft" horiz-adv-x="266" d="M207 -232Q172 -191 142 -137T88 -22T51 107T37 244Q37 313 50 380T87 509T141 625T207 720L229 711Q198 668 177 615T142 501T122 376T115 244Q115 178 121 113T141 -13T176 -126T229 -223L207 -232Z" />
<glyph unicode=")" glyph-name="parenright" horiz-adv-x="266" d="M229 244Q229 175 216 108T179 -21T124 -137T59 -232L37 -223Q68 -180 89 -127T124 -13T144 112T151 244Q151 310 145 375T125 501T90 614T37 711L59 720Q93 679 124 625T178 510T215 381T229 244Z" />
<glyph unicode="*" glyph-name="asterisk" horiz-adv-x="441" d="M237 535L358 417L295 371L220 523L146 371L83 417L204 535L37 558L61 633L210 554L181 720H259L230 554L380 633L404 558L237 535Z" />
<glyph unicode="+" glyph-name="plus" horiz-adv-x="623" d="M338 334V96H286V334H47V386H285V624H337V386H576V334H338Z" />
<glyph unicode="," glyph-name="comma" horiz-adv-x="172" d="M131 19Q101 -38 75 -85Q64 -105 53 -125T33 -162T16 -191T5 -208L-14 -201Q-14 -195 -11 -181T-5 -148T4 -107T14 -63Q25 -11 39 52Q44 72 63 80T102 82Q111 78 118 71T130 56T135 38T131 19Z" />
<glyph unicode="-" glyph-name="hyphen" horiz-adv-x="305" d="M48 237V300H262V237H48Z" />
<glyph unicode="." glyph-name="period" horiz-adv-x="176" d="M137 30Q137 11 121 1T88 -10Q71 -10 55 0T39 30Q39 49 55 60T88 71Q105 71 121 60T137 30Z" />
<glyph unicode="/" glyph-name="slash" horiz-adv-x="316" d="M21 0H0L295 720H316L21 0Z" />
<glyph unicode="0" glyph-name="zero" horiz-adv-x="623" d="M513 360Q513 419 501 481T463 594T401 677T312 710Q261 710 223 678T160 594T123 481T110 360Q110 301 122 239T160 126T223 43T312 10Q363 10 400 42T463 126T500 239T513 360ZM591 360Q591 286 573
219T520 101T433 20T312 -10Q243 -10 191 20T103 101T50 219T32 360Q32 434 50 501T103 619T190 700T312 730Q381 730 433 700T520 619T573 501T591 360Z" />
<glyph unicode="1" glyph-name="one" horiz-adv-x="623" d="M273 0V700H186V720H351V0H273Z" />
<glyph unicode="2" glyph-name="two" horiz-adv-x="623" d="M35 0Q35 59 54 103T110 180T197 238T311 283Q351 296 384 314T440 358T476 418T489 496Q489 540 478 579T445 647T392 693T318 710Q277 710 245 693T192 647T159 579T148 496H70Q70 544 86 587T135
661T213 711T318 730Q377 730 423 712T502 662T550 587T567 496Q567 448 550 413T499 350T420 303T316 264Q226 235 172 178T114 20H588V0H35Z" />
<glyph unicode="3" glyph-name="three" horiz-adv-x="623" d="M584 180Q584 141 566 106T513 46T428 5T312 -10Q247 -10 196 5T110 45T57 106T39 180H117Q117 145 129 114T167 60T228 24T311 10Q358 10 394 23T455 60T493 114T506 180Q506 215 494 246T456 300T395
336T312 350H259V370H311Q354 370 386 383T441 420T475 474T487 540Q487 575 476 606T442 660T387 696T312 710Q269 710 237 697T182 660T148 606T136 540H58Q58 579 75 614T124 674T204 715T311 730Q371 730 418 715T498 675T548 614T565 540Q565 477 523 428T400
361Q490 344 537 295T584 180Z" />
<glyph unicode="4" glyph-name="four" horiz-adv-x="623" d="M477 175V0H399V175H31V195L317 653H371L85 195H399V720H477V195H592V175H477Z" />
<glyph unicode="5" glyph-name="five" horiz-adv-x="623" d="M579 239Q579 188 561 143T509 63T426 10T312 -10Q248 -10 199 9T115 63T63 142T45 239H123Q123 192 135 150T172 77T231 28T312 10Q358 10 393 28T452 77T488 150T501 239Q501 287 489 328T452 401T393
451T312 469Q247 469 205 433T141 338L139 335H62L140 720H552V700H213L157 425Q183 454 225 471T320 489Q383 489 431 469T512 415T562 336T579 239Z" />
<glyph unicode="6" glyph-name="six" horiz-adv-x="623" d="M495 239Q495 287 483 328T446 401T387 451T306 469Q260 469 225 451T166 402T130 329T117 239Q117 192 129 150T166 77T225 28T306 10Q352 10 387 28T446 77T482 150T495 239ZM573 239Q573 188 555
143T503 63T420 10T306 -10Q228 -10 176 13T92 78T47 177T34 303Q34 375 47 450T93 588T185 690T333 730Q415 730 475 691T573 586L519 551Q506 585 488 614T447 664T396 698T333 710Q281 710 241 684T174 615T133 513T119 392V387Q144 432 194 460T313 489Q377
489 425 470T507 416T556 337T573 239Z" />
<glyph unicode="7" glyph-name="seven" horiz-adv-x="623" d="M219 0H134L446 700H98V720H531V700L219 0Z" />
<glyph unicode="8" glyph-name="eight" horiz-adv-x="623" d="M506 180Q506 215 494 246T456 300T395 336T312 350Q265 350 229 337T167 300T130 246T117 180Q117 145 129 114T167 60T228 24T311 10Q358 10 394 23T455 60T493 114T506 180ZM487 540Q487 575 476
606T442 660T387 696T312 710Q269 710 237 697T182 660T148 606T136 540Q136 505 147 474T181 420T236 384T311 370Q354 370 386 383T441 420T475 474T487 540ZM584 180Q584 141 566 106T513 46T428 5T312 -10Q247 -10 196 5T110 45T57 106T39 180Q39 245 86 294T223
361Q142 378 100 427T58 540Q58 579 75 614T124 674T204 715T311 730Q371 730 418 715T498 675T548 614T565 540Q565 477 523 428T400 361Q490 344 537 295T584 180Z" />
<glyph unicode="9" glyph-name="nine" horiz-adv-x="623" d="M491 481Q491 528 479 570T442 643T383 692T301 710Q255 710 220 692T161 643T125 570T112 481Q112 433 124 392T161 319T220 269T301 251Q347 251 382 269T442 318T478 391T491 481ZM573 417Q573 345
561 270T515 132T423 30T274 -10Q192 -10 132 29T34 134L89 169Q102 135 119 106T160 56T212 22T274 10Q326 10 365 36T432 105T473 207T488 328L489 333Q464 288 414 260T294 231Q230 231 182 250T100 304T51 383T34 481Q34 532 52 577T104 657T188 710T301 730Q379
730 431 707T514 642T559 543T573 417Z" />
<glyph unicode=":" glyph-name="colon" horiz-adv-x="176" d="M137 30Q137 11 121 1T88 -10Q71 -10 55 0T39 30Q39 49 55 60T88 71Q105 71 121 60T137 30ZM137 488Q137 469 121 458T88 447Q71 447 55 458T39 488Q39 507 55 517T88 528Q105 528 121 518T137 488Z" />
<glyph unicode=";" glyph-name="semicolon" horiz-adv-x="176" d="M136 19Q106 -38 80 -85Q69 -105 58 -125T38 -162T21 -191T10 -208L-9 -201Q-9 -195 -6 -181T0 -148T9 -107T19 -63Q30 -11 44 52Q49 72 68 81T107 82Q116 79 123 72T135 56T140 38T136 19ZM137
488Q137 469 121 458T88 447Q71 447 55 458T39 488Q39 507 55 517T88 528Q105 528 121 518T137 488Z" />
<glyph unicode="&lt;" glyph-name="less" horiz-adv-x="623" d="M47 332V388L576 627V571L119 360L576 149V93L47 332Z" />
<glyph unicode="=" glyph-name="equal" horiz-adv-x="623" d="M47 232V284H576V232H47ZM47 436V488H576V436H47Z" />
<glyph unicode="&gt;" glyph-name="greater" horiz-adv-x="623" d="M47 93V149L504 360L47 571V627L576 388V332L47 93Z" />
<glyph unicode="?" glyph-name="question" horiz-adv-x="542" d="M305 30Q305 11 289 1T256 -10Q239 -10 223 0T207 30Q207 49 223 60T256 71Q273 71 289 60T305 30ZM505 555Q505 520 491 489T448 434T378 396T284 381L266 172H246L217 400Q263 401 301 409T368
435T411 482T427 555Q427 587 417 615T387 665T338 698T271 710Q233 710 204 698T155 665T125 616T115 555H37Q37 591 52 623T98 679T171 716T271 730Q326 730 369 717T443 679T489 623T505 555Z" />
<glyph unicode="@" glyph-name="at" horiz-adv-x="786" d="M526 445Q522 510 492 542T415 576Q388 577 364 564T320 529T284 477T257 416T239 355T232 299Q231 268 235 240T251 189T279 154T320 139Q346 137 368 147T409 174T440 213T463 260Q479 305 495 352T526
445ZM749 423Q749 389 741 355T716 287Q703 259 683 230T637 178T582 141T520 126Q493 126 478 139T462 173Q461 176 461 182T463 193H461Q438 161 399 142T310 126Q282 128 258 140T217 175T191 230T184 303Q186 349 201 400T245 495T316 565T413 591Q433 590
453 585T491 569T522 543T541 507H544L566 575H609L508 266Q502 248 496 224T490 186Q489 167 495 153T519 139Q542 138 562 153T599 185Q621 205 639 233T671 293T692 358T700 423Q701 490 680 545T621 638T528 698T409 719Q340 719 282 691T180 615T112 501T86
363Q84 282 107 216T172 103T275 29T409 1Q455 1 497 13T577 49T646 103T698 171H741Q717 129 678 95T594 37T500 1T409 -12Q325 -11 256 16T138 92T63 210T37 363Q38 441 67 509T146 626T264 704T409 733Q478 733 539 712T647 650T721 553T749 423Z" />
<glyph unicode="A" glyph-name="A" horiz-adv-x="596" d="M268 681L111 252H424L268 681ZM514 0L430 232H105L21 0H0L259 720H337L596 0H514Z" />
<glyph unicode="B" glyph-name="B" horiz-adv-x="597" d="M482 190Q482 225 471 256T438 310T384 346T309 360H132V20H309Q351 20 383 33T437 70T470 124T482 190ZM458 540Q458 573 448 602T420 653T373 687T309 700H132V380H309Q345 380 373 392T419 427T448
478T458 540ZM560 190Q560 151 543 116T494 56T416 15T309 0H54V720H309Q363 720 405 706T476 668T521 610T536 540Q536 480 499 435T392 372Q474 355 517 305T560 190Z" />
<glyph unicode="C" glyph-name="C" horiz-adv-x="709" d="M672 185Q653 141 625 106T559 44T474 4T372 -10Q292 -10 230 19T125 98T60 216T37 360Q37 436 59 503T124 621T229 701T372 730Q427 730 474 716T558 676T624 614T672 535H600Q586 572 565 604T516 660T452
696T372 710Q304 710 256 679T176 597T130 484T115 360Q115 298 129 236T175 124T255 42T372 10Q416 10 452 23T516 60T565 115T600 185H672V185Z" />
<glyph unicode="D" glyph-name="D" horiz-adv-x="713" d="M598 360Q598 430 584 492T540 600T466 673T362 700H132V20H362Q421 20 465 47T539 120T583 228T598 360ZM676 360Q676 285 656 220T597 106T498 29T362 0H54V720H362Q439 720 498 692T596 615T656 501T676 360Z" />
<glyph unicode="E" glyph-name="E" horiz-adv-x="576" d="M54 0V720H521V700H132V385H418V365H132V20H531V0H54Z" />
<glyph unicode="F" glyph-name="F" horiz-adv-x="572" d="M132 700V385H418V365H132V0H54V720H524V700H132Z" />
<glyph unicode="G" glyph-name="G" horiz-adv-x="714" d="M672 185Q653 141 625 106T559 44T474 4T372 -10Q292 -10 230 19T125 98T60 216T37 360Q37 436 59 503T124 621T229 701T372 730Q427 730 474 716T558 676T624 614T672 535H600Q586 572 565 604T516 660T452
696T372 710Q304 710 256 679T176 597T130 484T115 360Q115 298 129 236T175 124T255 42T372 10Q416 10 452 23T516 60T565 115T600 185V317H372V337H672V185Z" />
<glyph unicode="H" glyph-name="H" horiz-adv-x="624" d="M492 0V365H132V0H54V720H132V385H492V720H570V0H492Z" />
<glyph unicode="I" glyph-name="I" horiz-adv-x="186" d="M54 0V720H132V0H54Z" />
<glyph unicode="J" glyph-name="J" horiz-adv-x="186" d="M132 70Q132 31 114 -4T61 -64T-24 -105T-139 -120V-100Q-92 -100 -56 -87T4 -50T41 4T54 70V720H132V70V70Z" />
<glyph unicode="K" glyph-name="K" horiz-adv-x="530" d="M450 0L132 382V0H54V720H132V382L501 720H530L200 422L546 0H450Z" />
<glyph unicode="L" glyph-name="L" horiz-adv-x="587" d="M54 0V720H132V20H542V0H54Z" />
<glyph unicode="M" glyph-name="M" horiz-adv-x="808" d="M676 0V655L416 0H338L80 653V0H54V720H139L408 38L676 720H754V0H676Z" />
<glyph unicode="N" glyph-name="N" horiz-adv-x="648" d="M516 0L80 654V0H54V720H132L568 66V720H594V0H516Z" />
<glyph unicode="O" glyph-name="O" horiz-adv-x="743" d="M628 360Q628 421 614 483T568 596T488 678T372 710Q304 710 256 679T176 597T130 484T115 360Q115 298 129 236T175 124T255 42T372 10Q439 10 487 41T567 123T613 236T628 360ZM706 360Q706 283 684
216T619 99T514 19T372 -10Q292 -10 230 19T125 98T60 216T37 360Q37 436 59 503T124 621T229 701T372 730Q452 730 514 701T619 622T684 504T706 360Z" />
<glyph unicode="P" glyph-name="P" horiz-adv-x="548" d="M433 509Q433 548 423 583T392 644T343 685T274 700H132V318H274Q313 318 342 333T392 374T422 434T433 509ZM511 509Q511 465 495 427T449 360T375 315T274 298H132V0H54V720H274Q331 720 375 704T449
659T495 592T511 509Z" />
<glyph unicode="Q" glyph-name="Q" horiz-adv-x="743" d="M467 34Q433 65 399 81T333 100T271 94T218 65Q247 39 285 25T372 10Q399 10 422 16T467 34ZM628 360Q628 421 614 483T568 596T488 678T372 710Q304 710 256 679T176 597T130 484T115 360Q115 294 133
235T190 133Q217 152 250 158T322 155T400 122T482 55Q519 76 546 108T592 181T619 267T628 360ZM805 -72Q776 -97 739 -105T661 -104T575 -67T488 9Q433 -10 372 -10Q292 -10 230 19T125 98T60 216T37 360Q37 436 59 503T124 621T229 701T372 730Q452 730 514
701T619 622T684 504T706 360Q706 303 694 250T657 153T596 75T513 20Q547 -11 582 -27T649 -45T711 -37T764 -6L805 -72V-72Z" />
<glyph unicode="R" glyph-name="R" horiz-adv-x="537" d="M424 509Q424 548 414 583T383 644T334 685T265 700H132V318H265Q304 318 333 333T383 374T413 434T424 509ZM424 0V128Q424 163 411 194T373 248T311 284T225 298H132V0H54V720H265Q322 720 366 704T440
659T486 592T502 509Q502 472 491 439T457 378T403 333T327 306Q413 286 457 238T502 128V0H424Z" />
<glyph unicode="S" glyph-name="S" horiz-adv-x="600" d="M585 180Q585 141 566 106T511 46T421 5T300 -10Q232 -10 179 5T90 45T34 106T15 180H93Q93 145 106 114T146 60T211 24T300 10Q350 10 388 23T453 60T493 114T507 180Q507 215 494 246T454 300T389 336T300
350Q237 350 189 365T106 405T55 466T37 540Q37 579 54 614T106 674T188 715T300 730Q363 730 411 715T494 675T545 614T563 540H485Q485 575 473 606T438 660T380 696T300 710Q255 710 221 697T163 660T127 606T115 540Q115 505 127 474T162 420T220 384T300 370Q368
370 421 355T510 315T566 254T585 180Z" />
<glyph unicode="T" glyph-name="T" horiz-adv-x="623" d="M350 700V0H272V700H10V720H613V700H350Z" />
<glyph unicode="U" glyph-name="U" horiz-adv-x="672" d="M618 278Q618 216 601 164T548 73T461 12T338 -10Q271 -10 218 12T129 74T73 165T54 278V720H132V278Q132 222 147 174T192 89T264 31T362 10Q419 10 462 32T534 90T577 175T592 278V720H618V278V278Z" />
<glyph unicode="V" glyph-name="V" horiz-adv-x="596" d="M337 0H259L0 720H82L328 39L575 720H596L337 0Z" />
<glyph unicode="W" glyph-name="W" horiz-adv-x="938" d="M679 0H601L469 362L337 0H259L0 720H82L328 39L458 395L342 720H424L670 39L917 720H938L679 0Z" />
<glyph unicode="X" glyph-name="X" horiz-adv-x="606" d="M337 381L609 0H514L283 322L27 0H0L271 339L0 720H95L325 398L581 720H608L337 381Z" />
<glyph unicode="Y" glyph-name="Y" horiz-adv-x="638" d="M358 292V0H280V292L0 720H90L352 322L615 720H638L358 292Z" />
<glyph unicode="Z" glyph-name="Z" horiz-adv-x="644" d="M45 0V20L509 700H55V720H599V700L135 20H599V0H45Z" />
<glyph unicode="[" glyph-name="bracketleft" horiz-adv-x="285" d="M54 -232V720H240V700H132V-212H240V-232H54Z" />
<glyph unicode="\" glyph-name="backslash" horiz-adv-x="316" d="M295 0L0 720H21L316 0H295Z" />
<glyph unicode="]" glyph-name="bracketright" horiz-adv-x="285" d="M45 -232V-212H153V700H45V720H231V-232H45Z" />
<glyph unicode="^" glyph-name="asciicircum" horiz-adv-x="606" d="M482 144L277 553L71 144H49L266 576H340L556 144H482Z" />
<glyph unicode="_" glyph-name="underscore" horiz-adv-x="500" d="M0 -74V-54H500V-74H0Z" />
<glyph unicode="`" glyph-name="grave" horiz-adv-x="0" d="M365 593L168 735H261L385 593H365Z" />
<glyph unicode="a" glyph-name="a" horiz-adv-x="542" d="M410 301Q389 278 352 264T263 249Q226 249 198 239T152 212T124 173T115 129Q115 107 124 86T151 48T198 21T263 10Q300 10 327 20T373 47T401 85T410 130V301ZM410 0V47Q399 35 382 25T342 7T293 -5T240
-10Q195 -10 158 0T94 28T52 72T37 129Q37 161 55 187T105 231T177 259T263 269Q300 269 327 279T373 306T401 344T410 388Q410 410 402 431T377 470T336 497T278 508Q245 508 220 498T179 470T154 432T145 388H67Q67 420 84 446T130 490T198 518T278 528Q320 528
358 518T425 490T471 446T488 388V0H410Z" />
<glyph unicode="b" glyph-name="b" horiz-adv-x="564" d="M449 259Q449 300 439 344T407 424T355 484T280 508Q225 508 189 473T132 385V133Q152 80 188 45T280 10Q323 10 354 33T407 93T438 174T449 259ZM527 259Q527 203 511 154T465 69T389 11T285 -10Q234
-10 196 12T132 71V0H54V720H132V447Q157 484 195 506T285 528Q343 528 388 507T464 450T511 364T527 259Z" />
<glyph unicode="c" glyph-name="c" horiz-adv-x="544" d="M507 134Q479 69 422 30T284 -10Q226 -10 180 11T103 68T54 154T37 259Q37 315 54 364T102 449T180 507T284 528Q365 528 422 489T507 384H432Q413 437 376 472T284 508Q241 508 210 485T157 425T126 344T115
259Q115 218 125 174T157 94T209 34T284 10Q339 10 376 45T432 134H507V134Z" />
<glyph unicode="d" glyph-name="d" horiz-adv-x="564" d="M432 385Q412 438 376 473T284 508Q241 508 210 485T157 425T126 344T115 259Q115 218 125 174T157 94T209 34T284 10Q339 10 375 45T432 133V385ZM432 0V71Q407 34 369 12T279 -10Q221 -10 176 11T100
68T53 154T37 259Q37 315 53 364T100 449T176 507T279 528Q330 528 368 506T432 447V720H510V0H432Z" />
<glyph unicode="e" glyph-name="e" horiz-adv-x="568" d="M452 279Q451 322 440 363T407 436T355 488T284 508Q243 508 213 489T161 437T128 363T115 279H452V279ZM115 259Q115 218 125 174T157 94T209 34T284 10Q339 10 376 45T432 134H507Q479 69 422 30T284
-10Q226 -10 180 11T103 68T54 154T37 259Q37 315 54 364T102 449T180 507T284 528Q342 528 388 507T465 450T514 364T531 259H115Z" />
<glyph unicode="f" glyph-name="f" horiz-adv-x="196" d="M132 498V0H54V498H0V518H54V651Q54 689 73 709T141 730Q161 730 179 722V698Q175 701 169 704T155 707Q142 707 137 695T132 669V518H196V498H132Z" />
<glyph unicode="g" glyph-name="g" horiz-adv-x="480" d="M365 323Q365 354 358 386T334 446T295 490T240 508Q208 508 185 491T146 446T123 387T115 323Q115 292 122 259T146 199T185 155T240 137Q271 137 294 154T334 199T357 259T365 323ZM459 -100Q459 -130
444 -155T401 -200T332 -231T240 -242Q189 -242 148 -231T79 -201T36 -156T21 -100H99Q99 -125 108 -147T135 -186T179 -212T240 -222Q274 -222 300 -213T345 -187T372 -148T381 -100Q381 -75 372 -53T345 -14T301 12T240 22Q160 22 115 38T69 80Q69 97 92 111T159
131Q129 141 107 160T69 204T45 259T37 323Q37 366 51 403T91 468T154 512T240 528H433V508H334Q388 486 415 436T443 323Q443 280 429 243T389 177T326 133T240 117Q195 117 171 106T147 80Q147 64 171 53T240 42Q291 42 332 31T401 1T444 -44T459 -100Z" />
<glyph unicode="h" glyph-name="h" horiz-adv-x="544" d="M412 0V339Q412 374 403 404T376 458T332 494T272 508Q238 508 212 495T168 458T141 405T132 339V0H54V720H132V431Q153 474 195 501T298 528Q343 528 379 513T439 473T477 413T490 339V0H412Z" />
<glyph unicode="i" glyph-name="i" horiz-adv-x="186" d="M179 4Q164 -3 141 -3Q93 -3 74 17T54 76V518H132V58Q132 44 137 32T155 19Q163 19 169 22T179 29V4V4ZM142 690Q142 671 126 660T93 649Q76 649 60 660T44 690Q44 709 60 719T93 730Q110 730 126 720T142 690Z" />
<glyph unicode="j" glyph-name="j" horiz-adv-x="186" d="M132 -163Q132 -201 113 -221T45 -242Q25 -242 7 -234V-210Q11 -213 17 -216T31 -219Q44 -219 49 -207T54 -181V518H132V-163V-163ZM142 690Q142 671 126 660T93 649Q76 649 60 660T44 690Q44 709 60 719T93
730Q110 730 126 720T142 690Z" />
<glyph unicode="k" glyph-name="k" horiz-adv-x="425" d="M349 0L132 287V0H54V720H132V287L395 518H425L201 324L444 0H349Z" />
<glyph unicode="l" glyph-name="l" horiz-adv-x="186" d="M179 4Q164 -3 141 -3Q93 -3 74 17T54 76V720H132V58Q132 44 137 32T155 19Q163 19 169 22T179 29V4V4Z" />
<glyph unicode="m" glyph-name="m" horiz-adv-x="902" d="M770 0V339Q770 374 761 404T734 458T690 494T630 508Q596 508 570 495T526 458T499 405T490 339V0H412V339Q412 374 403 404T376 458T332 494T272 508Q238 508 212 495T168 458T141 405T132 339V0H54V518H132V431Q153
474 195 501T298 528Q368 528 413 494T477 407Q495 460 540 494T656 528Q701 528 737 513T797 473T835 413T848 339V0H770Z" />
<glyph unicode="n" glyph-name="n" horiz-adv-x="544" d="M412 0V339Q412 374 403 404T376 458T332 494T272 508Q238 508 212 495T168 458T141 405T132 339V0H54V518H132V431Q153 474 195 501T298 528Q343 528 379 513T439 473T477 413T490 339V0H412Z" />
<glyph unicode="o" glyph-name="o" horiz-adv-x="568" d="M453 259Q453 300 443 344T411 424T359 484T284 508Q241 508 210 485T157 425T126 344T115 259Q115 218 125 174T157 94T209 34T284 10Q327 10 358 33T411 93T442 174T453 259ZM531 259Q531 203 514 154T466
69T388 11T284 -10Q226 -10 180 11T103 68T54 154T37 259Q37 315 54 364T102 449T180 507T284 528Q342 528 388 507T465 450T514 364T531 259Z" />
<glyph unicode="p" glyph-name="p" horiz-adv-x="564" d="M449 259Q449 300 439 344T407 424T355 484T280 508Q225 508 189 473T132 385V133Q152 80 188 45T280 10Q323 10 354 33T407 93T438 174T449 259ZM527 259Q527 203 511 154T465 69T389 11T285 -10Q234
-10 196 12T132 71V-232H54V518H132V447Q157 484 195 506T285 528Q343 528 388 507T464 450T511 364T527 259Z" />
<glyph unicode="q" glyph-name="q" horiz-adv-x="564" d="M432 385Q412 438 376 473T284 508Q241 508 210 485T157 425T126 344T115 259Q115 218 125 174T157 94T209 34T284 10Q339 10 375 45T432 133V385ZM432 -232V71Q407 34 369 12T279 -10Q221 -10 176 11T100
68T53 154T37 259Q37 315 53 364T100 449T176 507T279 528Q330 528 368 506T432 447V518H510V-232H432Z" />
<glyph unicode="r" glyph-name="r" horiz-adv-x="354" d="M284 496Q278 508 268 508Q235 507 210 494T167 457T141 404T132 339V0H54V518H132V431Q152 473 192 499T293 528Q298 528 302 528T311 527L284 496Z" />
<glyph unicode="s" glyph-name="s" horiz-adv-x="495" d="M473 130Q473 101 458 76T413 31T342 1T247 -10Q194 -10 153 1T82 31T38 75T22 130H100Q100 105 109 84T138 46T184 20T247 10Q283 10 310 19T356 45T385 83T395 130Q395 154 385 176T357 214T311 239T247
249Q198 249 159 260T93 290T52 334T37 389Q37 418 51 443T93 487T159 517T247 528Q296 528 335 517T402 488T443 444T458 389H380Q380 438 346 473T247 508Q183 508 149 473T115 389Q115 364 123 343T149 305T190 279T247 269Q300 269 342 258T413 229T457 185T473
130Z" />
<glyph unicode="t" glyph-name="t" horiz-adv-x="196" d="M132 498V69Q132 45 138 29T158 13Q163 13 168 14T179 19V-2Q161 -10 141 -10Q93 -10 74 10T54 69V497H0V517H54V608L132 630V518H196V498H132Z" />
<glyph unicode="u" glyph-name="u" horiz-adv-x="544" d="M412 0V87Q391 44 349 17T246 -10Q201 -10 165 5T105 45T67 105T54 179V518H132V179Q132 144 141 114T168 60T212 24T272 10Q306 10 332 23T376 60T403 113T412 179V518H490V0H412Z" />
<glyph unicode="v" glyph-name="v" horiz-adv-x="455" d="M267 0H189L0 518H82L258 38L434 518H455L267 0Z" />
<glyph unicode="w" glyph-name="w" horiz-adv-x="759" d="M570 0H492L379 303L267 0H189L0 518H82L258 38L369 335L303 518H385L561 38L738 518H759L570 0Z" />
<glyph unicode="x" glyph-name="x" horiz-adv-x="465" d="M377 0L212 224L28 0H0L201 241L0 518H94L256 298L438 518H465L268 281L471 0H377Z" />
<glyph unicode="y" glyph-name="y" horiz-adv-x="544" d="M490 9Q490 -41 474 -86T425 -166T347 -221T241 -242Q150 -242 90 -199T11 -88H89Q106 -147 145 -184T241 -222Q283 -222 314 -203T368 -153T401 -79T412 9V87Q391 44 349 17T246 -10Q201 -10 165 5T105
45T67 105T54 179V518H132V179Q132 144 141 114T168 60T212 24T272 10Q306 10 332 23T376 60T403 113T412 179V518H490V9V9Z" />
<glyph unicode="z" glyph-name="z" horiz-adv-x="533" d="M45 0V20L394 498H55V518H488V498L139 20H488V0H45Z" />
<glyph unicode="{" glyph-name="braceleft" horiz-adv-x="326" d="M188 -232Q168 -232 152 -219T123 -183T105 -132T98 -72V136Q98 155 95 172T85 203T68 225T45 234V254Q58 254 68 262T84 284T94 315T98 352V560Q98 591 104 620T123 671T151 706T188 720H281V700H230Q216
700 206 688T189 654T179 607T176 553V350Q176 315 164 285T126 244Q152 233 164 203T176 138V-65Q176 -92 179 -118T188 -166T205 -199T230 -212H281V-232H188Z" />
<glyph unicode="|" glyph-name="bar" horiz-adv-x="166" d="M54 -10V730H112V-10H54Z" />
<glyph unicode="}" glyph-name="braceright" horiz-adv-x="326" d="M281 234Q267 234 258 226T241 204T231 173T228 136V-72Q228 -103 222 -132T203 -183T174 -218T137 -232H45V-212H96Q110 -212 120 -200T137 -166T147 -119T150 -65V138Q150 173 162 203T200
244Q174 255 162 285T150 350V553Q150 580 147 606T137 654T120 687T96 700H45V720H137Q157 720 174 707T203 671T221 620T228 560V352Q228 333 231 316T241 285T257 263T281 254V234V234Z" />
<glyph unicode="~" glyph-name="asciitilde" horiz-adv-x="591" d="M555 372Q538 340 507 326T440 312Q405 312 375 322T316 346T260 369T205 380Q174 380 148 364T107 320L38 356Q55 388 86 402T153 416Q187 416 218 406T277 382T333 359T387 348Q418 348 444
364T486 408L555 372V372Z" />
</font>
</defs>
</svg>
